<svg fill="none" viewBox="0 0 14 14" xmlns="http://www.w3.org/2000/svg"><path fill-rule="evenodd" clip-rule="evenodd" d="M6.304 4.627a1.273 1.273 0 011.918 1.1c0 .299-.232.61-.671.903a3.85 3.85 0 01-.794.4l-.01.003A.636.636 0 007.15 8.24l-.2-.604.201.604h.001l.003-.001.007-.003.022-.008.074-.027a5.12 5.12 0 00.999-.513c.515-.343 1.237-.986 1.238-1.96a2.545 2.545 0 00-4.947-.848.636.636 0 101.2.422c.1-.283.297-.523.556-.675zm1.332 5.555a.636.636 0 11-1.272 0 .636.636 0 011.272 0z" fill="currentColor"/><path fill-rule="evenodd" clip-rule="evenodd" d="M7 1.273a5.727 5.727 0 100 11.454A5.727 5.727 0 007 1.273zM0 7a7 7 0 1114 0A7 7 0 010 7z" fill="none"/></svg>
